<svg version="1.2" xmlns="http://www.w3.org/2000/svg" viewBox="0 0 1024 1024" width="1024" height="1024">
	<title>main</title>
	<style>
		.s0 { fill: #000000 } 
		.s1 { fill: #00ff00 } 
	</style>
	<path id="Shape 1" class="s0" d="m512 1024c-283.1 0-512-228.9-512-512 0-283.1 228.9-512 512-512 283.1 0 512 228.9 512 512 0 283.1-228.9 512-512 512z"/>
	<path id="oc" class="s1" aria-label="oc"  d="m265.1 751.9q-61.4 0-111.9-29.7-49.5-30.7-78.2-85.2-28.7-54.4-28.7-125.7 0-68.4 28.7-122.8 28.7-54.5 78.2-86.2 50.5-31.7 111.9-31.7 62.4 0 111.9 31.7 50.5 31.7 79.3 86.2 29.7 54.4 29.7 122.8 0 71.3-29.7 125.7-28.8 54.5-79.3 85.2-49.5 29.7-111.9 29.7zm0-89.1q32.7 0 56.5-18.8 23.7-19.8 37.6-53.5 14.9-34.7 14.9-79.2 0-46.6-14.9-80.3-13.9-33.6-37.6-51.5-23.8-18.8-56.5-18.8-29.7 0-54.4 18.8-23.8 17.9-38.7 51.5-13.8 33.7-13.8 80.3 0 44.5 13.8 79.2 13.9 33.7 37.7 53.5 24.7 18.8 55.4 18.8zm523.9 91.1q-50.5 0-94.1-17.8-42.6-17.9-75.2-49.6-31.7-31.6-49.6-75.2-17.8-43.6-17.8-96.1 0-50.5 17.8-95.1 17.9-44.5 49.6-77.2 32.6-33.7 75.2-52.5 43.6-19.8 95.1-19.8 63.4 0 110.9 23.8 47.5 23.7 75.3 65.3l-62.4 68.4-6 6.9-7.9-5.9q0-8-2-15.9-1.9-8.9-12.8-20.8-18.8-18.8-41.6-24.7-22.8-7-52.5-7-24.8 0-47.5 10.9-21.8 9.9-39.7 29.7-17.8 18.8-27.7 47.6-9.9 28.7-9.9 66.3 0 33.7 9.9 61.4 10.9 26.8 27.7 46.6 17.9 18.8 40.6 29.7 23.8 9.9 49.6 9.9 20.8 0 40.6-6 19.8-5.9 38.6-17.8 19.8-12.9 36.6-33.7l62.4 71.3q-36.6 40.6-85.2 59.5-48.5 17.8-98 17.8z"/>
</svg>