<svg version="1.2" xmlns="http://www.w3.org/2000/svg" viewBox="0 0 1024 1024" width="1024" height="1024">
	<title>programming</title>
	<style>
		.s0 { fill: #000000 } 
		.s1 { fill: #00ff00 } 
	</style>
	<path id="Shape 1" class="s0" d="m512 1024c-283.1 0-512-228.9-512-512 0-283.1 228.9-512 512-512 283.1 0 512 228.9 512 512 0 283.1-228.9 512-512 512z"/>
	<path id="101" class="s1" aria-label="101"  d="m158.4 465v-50.1h64.1v-181.8l-65.8 13.5v-49.3l65.4-13.6h69v231.2h64v50.1zm400.8-140.9q0-52.8-10-74.3-9.8-21.6-33.2-21.6-23.3 0-33.3 21.6-10 21.5-10 74.3 0 53.3 10 75.1 10 21.9 33.3 21.9 23.2 0 33.2-21.9 10-21.8 10-75.1zm72.5 0.5q0 69.9-30.1 108-30.2 37.9-85.6 37.9-55.5 0-85.7-37.9-30.1-38.1-30.1-108 0-70.1 30.1-107.9 30.2-38.1 85.7-38.1 55.4 0 85.6 38.1 30.1 37.8 30.1 107.9zm63.7 140.4v-50.1h64.1v-181.8l-65.8 13.5v-49.3l65.4-13.6h69v231.2h64v50.1z"/>
	<path id="011" class="s1" aria-label="011"  d="m289.5 699.1q0-52.8-10-74.3-9.8-21.6-33.1-21.6-23.4 0-33.4 21.6-10 21.5-10 74.3 0 53.3 10 75.1 10 21.9 33.4 21.9 23.2 0 33.1-21.9 10-21.8 10-75.1zm72.6 0.5q0 69.9-30.2 108-30.1 37.9-85.5 37.9-55.6 0-85.8-37.9-30.1-38.1-30.1-108 0-70.1 30.1-107.9 30.2-38.1 85.8-38.1 55.4 0 85.5 38.1 30.2 37.8 30.2 107.9zm63.7 140.4v-50.1h64v-181.8l-65.7 13.5v-49.3l65.3-13.6h69v231.2h64.1v50.1zm268.5 0v-50.1h64v-181.8l-65.7 13.5v-49.3l65.4-13.6h68.9v231.2h64.1v50.1z"/>
</svg>