<svg version="1.2" xmlns="http://www.w3.org/2000/svg" viewBox="0 0 1024 1024" width="1024" height="1024">
	<title>japanese</title>
	<style>
		.s0 { fill: #0000ff } 
		.s1 { fill: #ffffff } 
	</style>
	<path id="Shape 2" class="s0" d="m512 1024c-283.1 0-512-228.9-512-512 0-283.1 228.9-512 512-512 283.1 0 512 228.9 512 512 0 283.1-228.9 512-512 512z"/>
	<path id="語" class="s1" aria-label="語"  d="m932.6 498.2q11.9 8.5 11.9 17 0.9 7.6-21.2 11.8-17.9 3.5-43.4 2.6-24.6-0.8-48.4-2.6-13.6-0.8-26.4-0.8-11.9-0.8-21.2-0.8-10.2 0-21.3 0-10.2 0-20.4 0-51.8 0-102.8 2.5-51 1.7-82.5 16.1-18.7 11.1-41.6 7.7-22.1-3.4-40-17.8-17-14.5-22.9-34.9 21.2 3.4 36.5 1.7 15.3-2.5 30.6-5.9 11.1-1.7 23.8-4.3 13.6-2.6 30.6-2.6 11.9-17.8 16.2-43.3 4.2-25.5 9.3-50.2-27.2 3.5-58.6 0.9-31.5-2.5-48.5-23.8 12.8-17.8 37.4-21.2 25.5-3.4 51.9-4.3 6.8 0 14.4 0 7.7 0 14.5-0.8 0-0.9 0.8-2.6 7.7-21.2 12.8-47.6 5.9-26.4-8.5-45.9-22.1 4.3-47.6 3.4-24.7-1.7-45.1-10.2-20.4-9.3-28.9-25.5 17.9-13.6 44.2-14.4 27.2-0.9 57 0 17 1.7 34 1.7 17 0 33.1-1.7 5.1-6 11.9-6.8 6.8-1.7 16.2-1.7 5.1 0 10.2 0 5.9 0 11.9-0.9 17-2.5 32.3-11.9 15.3-10.2 26.3-11 23.8-1.7 47.6 12.7 24.7 13.6 35.7 35.7-48.4 11.1-91.8 12.8-43.3 1.7-94.3 11 22.9 11.9 20.4 34.8-1.7 23-7.7 47.7-1.7 5.1-2.5 7.6 12.7 2.5 23.8 0 11.9-3.4 22.9-6.8 9.4-3.4 18.7-5.9 10.2-2.6 19.6-0.9 14.4 10.2 31.4 17.9 17.9 7.6 33.2 17.8 15.3 9.4 22.1 28.1-3.4 0.8-8.5 3.3-5.1 1.8-11.1 3.5-5.1 1.7-12.7 0-6 18.7-9.4 39-3.4 20.5-7.6 40.9 11.9 3.4 19.5 2.5 8.5-1.7 16.2-3.4 5.9-1.7 11.9-2.5 6.8-1.7 14.4 0 11.9 3.4 34 12.7 22.1 8.5 35.7 19.6zm-34 118.1q-13.6 6-28.9 11.9-15.3 5.1-27.2 13.6-1.7 31.5-8.5 68-5.9 35.7-19.5 71.4 1.7 3.4 4.2 5.1 3.4 1.7 6.8 3.4 6 3.4 10.2 8.5 5.1 5.1 3.4 17-66.3 0.8-124.9 2.6-57.8 0.8-111.4 0.8-4.2 2.5-0.8 11.9 0.8 3.4 1.7 7.6 0.8 3.4-0.9 7.7-13.6 5.1-25.5-3.4-11.9-9.4-22.9-20.4-5.1-5.1-10.2-10.2-5.1-5.1-10.2-8.5-4.3-14.4-3.4-33.2 1.7-18.6 4.2-39.1 2.6-18.6 4.3-38.2 2.5-19.5-0.9-37.4-2.5-14.4-11-22.1-7.7-7.7-16.2-14.4-8.5-7.7-11.9-18.8 24.7-11.8 62.9-14.4 38.3-2.6 79.1-3.4 28 0 55.2-0.8 28.1-1.7 51-6 11.9-22.1 34-18.7 22.1 3.4 47.6 12.7 7.7 2.6 15.3 6 7.7 2.5 15.3 4.3 0.9 2.5-0.8 5.1-1.7 2.5-1.7 4.2 11.9 4.3 24.6 8.5 13.6 4.3 17 18.7zm-400.3 5.1q-1.7 12.7-11.9 17.9-9.4 4.2-20.4 7.6-12.8 17.9-18.7 48.5-6 29.7-8.5 61.1-1.7 30.6-3.4 51-26.4 7.7-50.2 11.1-22.9 2.5-48.4 4.3-25.5 1.6-57.8 5.9-1.7 4.2-2.6 10.2 0 6 0 11.9 0 8.5-1.7 16.1-0.8 7.7-6.8 11.1-16.1-1.7-26.3-9.3-10.2-7.7-18.7-17-8.5-10.3-20.4-16.2 3.4-32.3 5.1-68 1.7-35.7-3.4-74-12.8-14.4-23.8-27.1-11.1-12.8-21.3-34 17.9-18.7 46.8-22.1 28.9-4.3 60.3-6 28.9-1.7 54.4-6.8 26.4-5.1 41.7-23.8 4.2 1.7 8.5 0.8 5.1-0.8 9.3-1.6 3.4-1.7 6.8-1.7 4.3-0.9 7.7-0.9 5.9 0 11 6.8 6 6.8 12.8 8.5 1.7 0 7.6-1.7 6-2.5 6.8-1.7 17.9 3.4 32.3 16.2 14.5 12.7 33.2 22.9zm-16.2-333.2q-41.6 9.4-96.9 14.4-55.2 5.2-106.2 18.8-8.5 2.5-23.8 4.2-15.3 1.7-23 5.1-5.9 2.6-11 6-4.3 3.4-8.5 6.7-6 5.2-11.9 9.4-6 3.4-12.8 3.4-4.2 0-7.6-3.4-3.4-3.4-6.8-6.8-3.4-4.2-6.8-6.8-3.4-3.4-8.5-0.8-3.4-21.3-16.2-32.3-12.7-12-22.9-25.5-1.7-5.1 0-6 2.5-1.7 5.1-2.5 6.8-2.6 6.8-6.8 9.3 0.8 31.4 2.5 23 1.7 52.7 2.6 29.8 0.8 58.7 0 27.2-0.9 51-4.3 23.8-3.4 36.5-10.2 14.5-8.5 17-21.3 2.6-13.5-4.2-26.3-6-13.6-16.2-22.9-10.2-9.4-21.2-9.4-9.4-7.6-13.6-18.7-4.3-11-16.2-11.9 15.3-11 40-16.1 25.5-5.2 49.3 1.7 23.8 5.9 34.8 31.4-5.1 22.1-9.3 40.8-4.3 17.9-19.6 33.2 0 5.1 5.1 7.6 5.1 2.6 11.1 3.4 5.9 1.7 10.2 4.2 4.2 2.6 0.8 9.4 13.6-5.9 28.1 6 15.3 11.9 23.8 20.4 0.8 0.8 0.8 0.8zm278 330.7q-20.4-3.4-53.6-3.4-33.1-0.9-66.3 3.4-32.3 4.2-51.8 17 2.5 15.2 2.5 32.2 0 16.2 0 33.2 0 17.8 0 35.7 0 17.9 2.6 34.9 37.4 3.4 79 1.6 41.7-1.6 77.4-6.7 9.3-27.3 10.2-62.1 0.8-34.8 0-74.8 0-3.4 0-5.9 0-2.6 0-5.1zm-380 17q-31.4-4.3-63.7 0.8-31.5 4.3-53.6 16.2-3.4 23.7-2.5 44.1 1.7 19.6 3.4 39.1 1.7 12.8 2.5 25.5 0.9 12.8 0.9 26.4 16.1 0.9 33.1-1.7 17.9-2.5 34.9-5.9 10.2-1.8 19.5-3.4 9.4-1.7 18.7-2.6 6-21.3 6.8-46.8 1.7-26.3 0.9-50.1 0-24.6-0.9-41.6zm366.4-258.4q-10.2-6-22.1-5.1-11.1 0.8-23 2.5-9.3 1.7-19.5 3.4-9.4 1.7-20.4 0-7.7 28.9-19.6 53.6-11.9 24.6-21.2 45.8 23.8 3.5 56.9 2.6 33.2-0.9 55.3-3.4 6.8-23.8 7.6-51 1.7-27.2 6-48.5zm-299.2 135.2q-22.1-2.5-45.9 1.7-23.8 4.2-47.6 10.2-8.5 1.7-16.2 3.4-7.6 1.7-15.3 3.4-36.5 6.8-68 5.1-31.4-1.7-52.7-29.7 32.3-9.4 65.5-13.6 34-4.3 67.1-13.7 1.7 0 4.3-0.8 16.1-5.1 27.2-6.8 11-2.6 22.1 0 11.9 1.7 29.7 9.4 9.4 3.4 19.6 11 11 7.7 10.2 20.4zm-12.8-123.2q-3.4 16.1-19.5 22-15.3 5.2-35.7 6-19.6 0.9-35.7 4.3-2.6 0.8-5.1 1.7-2.6 0-6 0.8-19.5 4.2-43.3 7.7-23.8 2.5-43.4-3.5-19.5-6.7-27.2-31.4 25.5-7.6 50.2-9.3 25.5-2.6 49.3-6.8 23.8-5.1 45-19.6 20.4 1.7 41.7 11.9 21.2 9.4 29.7 16.2z"/>
</svg>