<svg version="1.2" xmlns="http://www.w3.org/2000/svg" viewBox="0 0 1024 1024" width="1024" height="1024">
	<title>main</title>
	<style>
		.s0 { fill: #0000ff } 
		.s1 { fill: #ffffff } 
	</style>
	<path id="Shape 1" class="s0" d="m512 1024c-283.1 0-512-228.9-512-512 0-283.1 228.9-512 512-512 283.1 0 512 228.9 512 512 0 283.1-228.9 512-512 512z"/>
	<path id="oc" class="s1" aria-label="oc"  d="m486 508.5q0 45-12.7 82.5-12.8 37.1-36.8 63.8-24 26.6-58.9 41.2-34.8 14.6-79.5 14.6-42.3 0-75.7-12.3-33.4-12.4-56.6-36.8-23.3-24.8-35.7-61.5-12.3-37.1-12.3-86.3 0-45.3 12.7-82.5 13.1-37.1 37.1-63.3 24.4-26.3 59.3-40.5 34.9-14.7 78.7-14.7 42.8 0 76.2 12.8 33.3 12.4 56.6 37.1 23.2 24.8 35.2 61.5 12.4 36.4 12.4 84.4zm-95.2 2.2q0-59.2-22.5-88.8-22.2-30-65.7-30-24 0-40.8 9.3-16.9 9.4-27.8 25.9-10.9 16.1-16.1 37.9-4.9 21.7-4.9 46.5 0 59.6 24 90 24 30 65.6 30 22.9 0 39.8-9 16.9-9.4 27.4-25.5 10.5-16.5 15.7-38.6 5.3-22.2 5.3-47.7zm482.6 95.3v81.4q-27 10.8-55.9 16.1-28.9 5.2-60.4 5.2-45.3 0-81.3-12.3-36-12.4-61.2-36.8-25.1-24.4-38.6-60.4-13.1-36-13.1-83.2 0-45.8 14.2-82.9 14.7-37.1 40.9-63.4 26.3-26.2 63-40.5 37.1-14.2 82.5-14.2 37.1 0 62.3 4.1 25.5 3.8 45.7 9.8v88.8q-23.2-11.6-50.6-18-27-6.3-51.4-6.3-25.5 0-45.7 8.6-20.3 8.6-34.2 24-13.8 15.4-21.3 37.5-7.2 21.7-7.2 48 0 27.4 7.9 49.1 7.9 21.8 22.1 37.1 14.7 15 34.9 23.3 20.3 7.9 45 7.9 12 0 25.1-1.5 13.5-1.9 26.7-4.9 13.5-3.4 26.2-7.5 13.1-4.1 24.4-9z"/>
</svg>