<svg version="1.2" xmlns="http://www.w3.org/2000/svg" viewBox="0 0 1024 1024" width="1024" height="1024">
	<title>programming</title>
	<style>
		.s0 { fill: #0000ff } 
		.s1 { fill: #ffffff } 
	</style>
	<path id="Shape 1" class="s0" d="m512 1024c-283.1 0-512-228.9-512-512 0-283.1 228.9-512 512-512 283.1 0 512 228.9 512 512 0 283.1-228.9 512-512 512z"/>
	<path id="101" class="s1" aria-label="101"  d="m380.7 440h-169.9v-42.4h65v-164l-56.6 31.2-15.6-38.9 81-42.7h40.1v214.4h56zm229.9-128.7q0 31.5-6.8 56.3-6.9 24.8-20.1 41.9-13.1 17-32.1 26-18.9 9-43.3 9-21.1 0-38.9-7.4-17.8-7.4-30.7-23.3-12.9-16-20.1-40.8-7.2-24.8-7.2-59.4 0-31.4 6.8-56.2 7.1-24.8 20.1-41.8 13.1-17.2 32.3-26.2 19.1-9 43.3-9 21.1 0 38.9 7.5 17.8 7.4 30.5 23.2 12.9 15.8 20.1 40.6 7.2 24.8 7.2 59.6zm-151.2 0.8q0 3.9 0 7.4 0 3.3 0.4 6.8l95.7-69.1q-6.8-19.3-18.1-28.5-11.2-9.4-26.4-9.4-10.9 0-20.3 5.7-9.4 5.4-16.4 17-6.9 11.5-11 28.9-3.9 17.4-3.9 41.2zm103.2 0.8q0-3.4-0.2-6.7-0.2-3.5-0.2-6.6l-95.1 68.7q6.2 19 17.5 28.2 11.4 9.1 26.4 9.1 10.9 0 20.3-5.6 9.6-5.7 16.4-17 7-11.5 11-28.9 3.9-17.6 3.9-41.2zm258 127.1h-170v-42.4h65.1v-164l-56.7 31.2-15.6-38.8 81.1-42.8h40v214.4h56.1z"/>
	<path id="010" class="s1" aria-label="010"  d="m395.7 672.3q0 31.4-6.8 56.2-6.9 24.8-20.2 42-13.1 17-32 26-18.9 9-43.4 9-21 0-38.8-7.4-17.8-7.5-30.7-23.3-12.9-16-20.1-40.8-7.2-24.8-7.2-59.4 0-31.4 6.8-56.2 7-24.8 20.1-41.8 13.1-17.2 32.2-26.2 19.2-9 43.4-9 21.1 0 38.9 7.5 17.7 7.4 30.4 23.2 12.9 15.8 20.2 40.6 7.2 24.8 7.2 59.6zm-151.2 0.8q0 3.9 0 7.4 0 3.3 0.4 6.8l95.7-69.1q-6.8-19.3-18.2-28.5-11.1-9.4-26.3-9.4-11 0-20.3 5.7-9.4 5.4-16.4 17-6.9 11.5-11 28.9-3.9 17.3-3.9 41.2zm103.1 0.8q0-3.4-0.2-6.7-0.2-3.5-0.2-6.6l-95.1 68.7q6.3 19 17.6 28.1 11.3 9.2 26.4 9.2 10.9 0 20.3-5.6 9.6-5.7 16.4-17 7-11.6 10.9-28.9 3.9-17.6 3.9-41.2zm258 127.1h-169.9v-42.4h65.1v-164l-56.7 31.2-15.6-38.9 81.1-42.7h40v214.4h56zm229.9-128.7q0 31.5-6.8 56.3-6.8 24.8-20.1 41.9-13.1 17-32.1 26-18.9 9-43.3 9-21.1 0-38.9-7.4-17.8-7.4-30.6-23.3-12.9-16-20.2-40.8-7.2-24.8-7.2-59.3 0-31.5 6.8-56.3 7.1-24.8 20.2-41.8 13.1-17.2 32.2-26.2 19.1-9 43.4-9 21 0 38.8 7.5 17.8 7.4 30.5 23.2 12.9 15.8 20.1 40.6 7.2 24.8 7.2 59.6zm-151.1 0.8q0 3.9 0 7.4 0 3.3 0.4 6.8l95.7-69.1q-6.9-19.3-18.2-28.5-11.1-9.4-26.4-9.4-10.9 0-20.3 5.7-9.4 5.4-16.4 17-6.8 11.5-10.9 28.9-3.9 17.4-3.9 41.2zm103.1 0.8q0-3.4-0.2-6.7-0.2-3.5-0.2-6.6l-95.1 68.7q6.2 19 17.6 28.2 11.3 9.1 26.3 9.1 11 0 20.3-5.6 9.6-5.7 16.4-17 7.1-11.5 11-28.9 3.9-17.6 3.9-41.2z"/>
</svg>